<mxfile host="app.diagrams.net" modified="2024-01-26T10:58:11.089Z" agent="Mozilla/5.0 (Windows NT 10.0; Win64; x64; rv:122.0) Gecko/20100101 Firefox/122.0" etag="xUot6CYruMivWQ0ZFfGN" version="22.1.20" type="device">
  <diagram name="Page-1" id="lZU14NyXt5E4zoHE3WID">
    <mxGraphModel dx="1070" dy="703" grid="1" gridSize="10" guides="1" tooltips="1" connect="1" arrows="1" fold="1" page="1" pageScale="1" pageWidth="850" pageHeight="1100" math="0" shadow="0">
      <root>
        <mxCell id="0" />
        <mxCell id="1" parent="0" />
        <mxCell id="Oq1PyvTqDuffHN42yPUN-1" value="" style="rounded=0;whiteSpace=wrap;html=1;" vertex="1" parent="1">
          <mxGeometry x="60" y="70" width="740" height="540" as="geometry" />
        </mxCell>
        <mxCell id="Oq1PyvTqDuffHN42yPUN-2" value="LAN File Sharing" style="rounded=0;whiteSpace=wrap;html=1;fillColor=#dae8fc;strokeColor=#6c8ebf;" vertex="1" parent="1">
          <mxGeometry x="60" y="70" width="740" height="50" as="geometry" />
        </mxCell>
        <mxCell id="Oq1PyvTqDuffHN42yPUN-3" value="" style="rounded=0;whiteSpace=wrap;html=1;" vertex="1" parent="1">
          <mxGeometry x="287.5" y="200" width="285" height="290" as="geometry" />
        </mxCell>
        <mxCell id="Oq1PyvTqDuffHN42yPUN-4" value="Drag and drop or click to select" style="rounded=0;whiteSpace=wrap;html=1;fillColor=#f5f5f5;fontColor=#333333;strokeColor=#666666;" vertex="1" parent="1">
          <mxGeometry x="305" y="220" width="245" height="150" as="geometry" />
        </mxCell>
        <mxCell id="Oq1PyvTqDuffHN42yPUN-5" value="Upload" style="rounded=1;whiteSpace=wrap;html=1;fillColor=#dae8fc;strokeColor=#6c8ebf;" vertex="1" parent="1">
          <mxGeometry x="340" y="400" width="180" height="40" as="geometry" />
        </mxCell>
      </root>
    </mxGraphModel>
  </diagram>
</mxfile>
